# xmcd
# 
# Track frame offsets:
#     150
#     19495
#     57755
#     86077
# 
# Disc length: 1509
# 
# Revision: 0
# Processed by: cddbd v1.5.2PL0 Copyright (c) Steve Scherf et al.
# Submitted via: fre:ac v1.0.17
# 
DISCID=2d05e304
DTITLE=Souled Out - In My Life (single)
DYEAR=1992
DGENRE=
TTITLE0=In My Life (7" Remix)
TTITLE1=In My Life (12" Remix)
TTITLE2=In My Life (Dub Mix)
TTITLE3=Shine On (Joey Negro 12" Mix)
EXTD=
EXTT0=
EXTT1=
EXTT2=
EXTT3=
PLAYORDER=
